<svg width="20" height="20" viewBox="0 0 20 20" fill="none" xmlns="http://www.w3.org/2000/svg">
<path d="M15.4167 12.5C15.8769 12.5 16.25 12.8731 16.25 13.3333V14.5833H17.5C17.9602 14.5833 18.3333 14.9564 18.3333 15.4167C18.3333 15.8769 17.9602 16.25 17.5 16.25H16.25V17.5C16.25 17.9602 15.8769 18.3333 15.4167 18.3333C14.9564 18.3333 14.5833 17.9602 14.5833 17.5V16.25H13.3333C12.8731 16.25 12.5 15.8769 12.5 15.4167C12.5 14.9564 12.8731 14.5833 13.3333 14.5833H14.5833V13.3333C14.5833 12.8731 14.9564 12.5 15.4167 12.5ZM15 2.5C16.3807 2.5 17.5 3.61929 17.5 5V10.8333C17.5 11.2936 17.1269 11.6667 16.6667 11.6667C16.2064 11.6667 15.8333 11.2936 15.8333 10.8333V5C15.8333 4.53976 15.4602 4.16667 15 4.16667H5C4.53976 4.16667 4.16667 4.53976 4.16667 5V11.3208L5.31575 10.1725C6.29207 9.19621 7.8746 9.19622 8.85091 10.1725L11.4233 12.7441C11.7485 13.0695 11.7485 13.5971 11.4233 13.9225C11.0979 14.248 10.5696 14.248 10.2441 13.9225L7.67253 11.3509C7.34709 11.0255 6.81958 11.0255 6.49414 11.3509L4.16667 13.6784V15C4.16667 15.4602 4.53976 15.8333 5 15.8333H10.8333C11.2936 15.8333 11.6667 16.2064 11.6667 16.6667C11.6667 17.1269 11.2936 17.5 10.8333 17.5H5C3.61929 17.5 2.5 16.3807 2.5 15V5C2.5 3.61929 3.61929 2.5 5 2.5H15ZM12.9167 5.83333C13.607 5.83333 14.1667 6.39298 14.1667 7.08333C14.1667 7.77369 13.607 8.33333 12.9167 8.33333C12.2263 8.33333 11.6667 7.77369 11.6667 7.08333C11.6667 6.39298 12.2263 5.83333 12.9167 5.83333Z" fill="#090C14"/>
</svg>
