<svg width="16" height="16" viewBox="0 0 16 16" fill="none" xmlns="http://www.w3.org/2000/svg">
<path d="M8.00076 1.33398C8.53175 1.33399 8.98307 1.58637 9.33486 1.92937C9.68361 2.26946 9.97059 2.73034 10.2026 3.24914L8.97476 3.79795C8.78487 3.37328 8.58263 3.0751 8.3955 2.89262C8.21142 2.71317 8.07924 2.67883 8.00076 2.67883C7.91672 2.67887 7.76782 2.71932 7.56124 2.93861C7.35328 3.15942 7.13459 3.51564 6.93719 4.01114C6.8201 4.30512 6.71536 4.63692 6.62546 4.99947C6.97149 4.96862 7.32668 4.94862 7.68844 4.94155L7.71471 6.28699C7.24985 6.29608 6.8025 6.32734 6.37882 6.37717C6.31867 6.88781 6.28568 7.4325 6.28566 8.0003C6.28566 8.56711 6.31891 9.11113 6.37882 9.62105C6.88899 9.68104 7.43304 9.7142 8.00017 9.71421C8.5675 9.7142 9.11182 9.68049 9.62211 9.62045C9.67183 9.19717 9.7038 8.75012 9.71288 8.28575L11.0583 8.31203C11.0513 8.6735 11.0312 9.02864 11.0004 9.37441C11.3633 9.28447 11.6951 9.17985 11.9893 9.06268C12.4849 8.86527 12.841 8.64661 13.0619 8.43863C13.2813 8.23198 13.3216 8.08317 13.3216 7.99911C13.3216 7.9206 13.2873 7.78844 13.1078 7.60437C12.9253 7.41725 12.6272 7.21499 12.2025 7.02511L12.7513 5.79731C13.2702 6.02927 13.731 6.31627 14.0711 6.66501C14.4141 7.0168 14.6665 7.46809 14.6665 7.99911C14.6664 8.57434 14.371 9.05349 13.9839 9.41801C13.5982 9.78123 13.0763 10.0774 12.4874 10.312C11.9897 10.5102 11.42 10.6731 10.7991 10.7963C10.6671 11.4629 10.4892 12.0711 10.2706 12.595C10.0368 13.1555 9.7438 13.6526 9.38622 14.0199C9.02658 14.3892 8.55832 14.6672 8.00076 14.6672C7.42558 14.6672 6.94637 14.3716 6.58186 13.9846C6.21861 13.5989 5.92251 13.0765 5.68789 12.4875C5.48932 11.989 5.32559 11.4184 5.20238 10.7963C4.58113 10.6731 4.01092 10.5103 3.51296 10.312C2.92396 10.0773 2.40156 9.78128 2.01583 9.41801C1.6289 9.05352 1.33329 8.57422 1.33325 7.99911C1.33329 7.44161 1.61135 6.97326 1.98059 6.61365C2.34782 6.25604 2.84496 5.96305 3.40547 5.72923C3.92921 5.51075 4.53721 5.33214 5.20357 5.20013C5.3267 4.5798 5.48978 4.01042 5.68789 3.51309C5.92249 2.92421 6.21867 2.40226 6.58186 2.01656C6.94637 1.62958 7.4256 1.33402 8.00076 1.33398ZM9.37607 10.9981C8.93108 11.0379 8.4705 11.0591 8.00017 11.0591C7.52977 11.0591 7.06931 11.0379 6.62426 10.9981C6.71436 11.3622 6.81968 11.695 6.93719 11.9901C7.13455 12.4855 7.35331 12.8411 7.56124 13.062C7.76791 13.2814 7.9167 13.3217 8.00076 13.3218C8.08257 13.3218 8.22467 13.2841 8.42237 13.0811C8.62199 12.8761 8.83384 12.5438 9.02851 12.0772C9.1602 11.7615 9.27689 11.3988 9.37607 10.9981ZM5.00173 6.62321C4.60127 6.72236 4.23879 6.83972 3.92322 6.97136C3.45659 7.16606 3.12438 7.37786 2.91936 7.5775C2.71647 7.7751 2.67873 7.91729 2.6787 7.99911C2.67873 8.08315 2.71915 8.23203 2.93847 8.43863C3.15928 8.64657 3.51497 8.8653 4.01041 9.06268C4.30518 9.1801 4.63798 9.28495 5.00173 9.37501C4.96209 8.93042 4.94081 8.47018 4.94081 8.0003C4.94082 7.52949 4.96193 7.06861 5.00173 6.62321ZM10.0789 4.15805C10.1143 4.06252 10.2496 4.06254 10.285 4.15805L10.5328 4.82808C10.6395 5.11621 10.8669 5.34371 11.1551 5.45034L11.8251 5.69817C11.9207 5.73351 11.9207 5.86888 11.8251 5.9042L11.1551 6.15203C10.8669 6.25869 10.6393 6.48613 10.5328 6.77429L10.285 7.44433C10.2496 7.53978 10.1143 7.53979 10.0789 7.44433L9.83112 6.77429C9.72447 6.48612 9.49702 6.25869 9.20886 6.15203L8.53882 5.9042C8.44329 5.86885 8.44329 5.73352 8.53882 5.69817L9.20886 5.45034C9.497 5.34371 9.72459 5.11634 9.83112 4.82808L10.0789 4.15805Z" fill="url(#paint0_linear_14170_1445)"/>
<defs>
<linearGradient id="paint0_linear_14170_1445" x1="1.33325" y1="1.33398" x2="14.6665" y2="1.33398" gradientUnits="userSpaceOnUse">
<stop stop-color="#00AAFF"/>
<stop offset="0.25" stop-color="#00B8FD"/>
<stop offset="0.5" stop-color="#00C5F3"/>
<stop offset="0.75" stop-color="#00CAE2"/>
<stop offset="1" stop-color="#00DACB"/>
</linearGradient>
</defs>
</svg>
