<svg width="20" height="20" viewBox="0 0 20 20" fill="none" xmlns="http://www.w3.org/2000/svg">
<path d="M5.81795 5.06572C6.50835 3.87021 8.03703 3.46079 9.23266 4.15101L11.2761 5.33021L11.3119 5.30986C12.5077 4.61951 14.0371 5.02885 14.7275 6.22458L16.4535 9.21449C16.4605 9.22665 16.4659 9.23958 16.4722 9.25193C17.5431 9.53447 18.3333 10.5069 18.3334 11.6665V14.9998C18.3334 16.3805 17.2141 17.4998 15.8334 17.4998H5.83341C3.53223 17.4998 1.66675 15.6343 1.66675 13.3332C1.66678 12.433 1.95285 11.5998 2.43823 10.9186L5.81795 5.06572ZM5.83341 10.8331C4.45276 10.8331 3.33351 11.9525 3.33341 13.3332C3.33341 14.7139 4.4527 15.8332 5.83341 15.8332H15.8334C16.2936 15.8332 16.6667 15.4601 16.6667 14.9998V11.6665C16.6667 11.2063 16.2936 10.8331 15.8334 10.8331H5.83341ZM5.83341 12.0815C6.52461 12.0815 7.08495 12.642 7.08504 13.3332C7.08504 14.0244 6.52467 14.5848 5.83341 14.5848C5.14216 14.5848 4.58179 14.0244 4.58179 13.3332C4.58188 12.642 5.14222 12.0815 5.83341 12.0815ZM13.2838 7.05791C13.0536 6.6594 12.5438 6.52263 12.1453 6.75274L7.96558 9.16648H14.5012L13.2838 7.05791ZM8.39933 5.59388C8.00081 5.36403 7.49088 5.50061 7.26082 5.89906L5.74552 8.52276L9.60864 6.29212L8.39933 5.59388Z" fill="#090C14"/>
</svg>
