<svg width="20" height="20" viewBox="0 0 20 20" fill="none" xmlns="http://www.w3.org/2000/svg">
<path d="M5.83333 10.8333C7.67428 10.8333 9.16667 12.3257 9.16667 14.1667C9.16662 16.0076 7.67426 17.5 5.83333 17.5C3.99241 17.5 2.50004 16.0076 2.5 14.1667C2.5 12.3257 3.99238 10.8333 5.83333 10.8333ZM16.6667 11.6667C17.1269 11.6667 17.5 12.0398 17.5 12.5C17.5 12.9602 17.1269 13.3333 16.6667 13.3333H15V15.8333C15.4602 15.8333 15.8333 16.2064 15.8333 16.6667C15.8333 17.1269 15.4602 17.5 15 17.5H13.3333C12.8731 17.5 12.5 17.1269 12.5 16.6667C12.5 16.2064 12.8731 15.8333 13.3333 15.8333V13.3333H11.6667C11.2065 13.3333 10.8334 12.9602 10.8333 12.5C10.8333 12.0398 11.2064 11.6667 11.6667 11.6667H16.6667ZM5.83333 12.5C4.91286 12.5 4.16667 13.2462 4.16667 14.1667C4.16671 15.0871 4.91288 15.8333 5.83333 15.8333C6.75378 15.8333 7.49996 15.0871 7.5 14.1667C7.5 13.2462 6.75381 12.5 5.83333 12.5ZM6.66667 2.5C8.04738 2.5 9.16667 3.61929 9.16667 5V6.66667C9.16665 8.04736 8.04737 9.16667 6.66667 9.16667H5C3.6193 9.16667 2.50002 8.04736 2.5 6.66667V5C2.5 3.61929 3.61929 2.5 5 2.5H6.66667ZM13.1185 3.41715C13.5806 2.70597 14.5865 2.66125 15.1164 3.28369L15.2157 3.41715L17.4357 6.83512C17.9756 7.66654 17.3788 8.76589 16.3875 8.76628H11.9466C10.955 8.7662 10.3583 7.66668 10.8984 6.83512L13.1185 3.41715ZM5 4.16667C4.53976 4.16667 4.16667 4.53976 4.16667 5V6.66667C4.16669 7.12689 4.53978 7.5 5 7.5H6.66667C7.12689 7.5 7.49998 7.12689 7.5 6.66667V5C7.5 4.53976 7.1269 4.16667 6.66667 4.16667H5ZM12.714 7.09961H15.6201L14.1667 4.86328L12.714 7.09961Z" fill="#090C14"/>
</svg>
