<svg width="20" height="20" viewBox="0 0 20 20" fill="none" xmlns="http://www.w3.org/2000/svg">
<path d="M5.00008 1.66663C5.46032 1.66663 5.83341 2.03972 5.83341 2.49996V4.16663H10.0001C10.4603 4.16663 10.8334 4.53972 10.8334 4.99996C10.8334 5.4602 10.4603 5.83329 10.0001 5.83329H5.83341V14.1666H14.1667V9.99996C14.1667 9.53972 14.5398 9.16662 15.0001 9.16662C15.4603 9.16663 15.8334 9.53972 15.8334 9.99996V14.1666H17.5001C17.9603 14.1666 18.3334 14.5397 18.3334 15C18.3334 15.4602 17.9603 15.8333 17.5001 15.8333H15.8334V17.5C15.8334 17.9602 15.4603 18.3333 15.0001 18.3333C14.5398 18.3333 14.1667 17.9602 14.1667 17.5V15.8333H5.83341V17.5C5.83341 17.9602 5.46032 18.3333 5.00008 18.3333C4.53984 18.3333 4.16675 17.9602 4.16675 17.5V15.8333H2.50008C2.03984 15.8333 1.66675 15.4602 1.66675 15C1.66675 14.5397 2.03984 14.1666 2.50008 14.1666H4.16675V5.83329H2.50008C2.03984 5.83329 1.66675 5.4602 1.66675 4.99996C1.66675 4.53972 2.03984 4.16663 2.50008 4.16663H4.16675V2.49996C4.16675 2.03972 4.53984 1.66663 5.00008 1.66663ZM15.2231 1.80172C15.2896 1.62186 15.5439 1.62186 15.6104 1.80172L15.914 2.62122C16.1651 3.29977 16.7003 3.83497 17.3788 4.08606L18.1983 4.38961C18.3782 4.45616 18.3782 4.71042 18.1983 4.77698L17.3788 5.08053C16.7003 5.33161 16.1651 5.86681 15.914 6.54537L15.6104 7.36487C15.5439 7.54472 15.2896 7.54472 15.2231 7.36487L14.9195 6.54537C14.6684 5.86681 14.1332 5.33161 13.4547 5.08053L12.6352 4.77698C12.4553 4.71042 12.4553 4.45616 12.6352 4.38961L13.4547 4.08606C14.1332 3.83497 14.6684 3.29977 14.9195 2.62122L15.2231 1.80172Z" fill="#090C14"/>
</svg>
