<svg width="24" height="24" viewBox="0 0 24 24" fill="none" xmlns="http://www.w3.org/2000/svg">
<path fill-rule="evenodd" clip-rule="evenodd" d="M9.87477 2.72953C10.1716 1.84023 11.0109 1.19922 12 1.19922C12.9759 1.19922 13.806 1.82318 14.1131 2.69395C14.3523 2.60677 14.6106 2.55922 14.88 2.55922C16.1172 2.55922 17.12 3.56203 17.12 4.79922V5.53197C17.3228 5.47162 17.5376 5.43922 17.76 5.43922C18.9972 5.43922 20 6.44203 20 7.67922V14.9992C20 17.1976 19.2601 19.0468 17.9842 20.35C16.7092 21.6523 14.9474 22.3592 13 22.3592C10.0484 22.3592 7.57624 20.3823 6.00087 18.1768L5.85444 17.9718L3.05629 14.2409C2.86278 13.9829 2.72279 13.6888 2.64457 13.3759C2.12769 11.3084 4.34243 9.63062 6.19278 10.688L6.24651 10.7187C6.39511 10.8036 6.5344 10.9039 6.66207 11.0179L6.88004 11.2125V4.83922C6.88004 3.60203 7.88285 2.59922 9.12004 2.59922C9.38487 2.59922 9.63896 2.64517 9.87477 2.72953ZM11.36 10.4992C11.36 10.941 11.0019 11.2992 10.56 11.2992C10.1182 11.2992 9.76004 10.941 9.76004 10.4992V4.83922C9.76004 4.48569 9.47357 4.19922 9.12004 4.19922C8.7665 4.19922 8.48004 4.48569 8.48004 4.83922V12.9992C8.48004 13.3146 8.29478 13.6005 8.00695 13.7294C7.71913 13.8582 7.38246 13.806 7.14723 13.596L5.59645 12.2114C5.55228 12.1719 5.5041 12.1372 5.45269 12.1079L5.39895 12.0772C4.77204 11.7189 4.02168 12.2874 4.1968 12.9878C4.2233 13.0939 4.27073 13.1935 4.33629 13.2809L7.14002 17.0192L7.15101 17.0342L7.30284 17.2468C8.73186 19.2474 10.7827 20.7592 13 20.7592C14.5527 20.7592 15.8909 20.201 16.8409 19.2307C17.79 18.2613 18.4 16.8305 18.4 14.9992V7.67922C18.4 7.32569 18.1136 7.03922 17.76 7.03922C17.4065 7.03922 17.12 7.32569 17.12 7.67922V10.4992C17.12 10.941 16.7619 11.2992 16.32 11.2992C15.8782 11.2992 15.52 10.941 15.52 10.4992V4.79922C15.52 4.44569 15.2336 4.15922 14.88 4.15922C14.5265 4.15922 14.24 4.44569 14.24 4.79922V10.4992C14.24 10.941 13.8819 11.2992 13.44 11.2992C12.9982 11.2992 12.64 10.941 12.64 10.4992V3.43922C12.64 3.08569 12.3536 2.79922 12 2.79922C11.6465 2.79922 11.36 3.08569 11.36 3.43922V10.4992Z" fill="#090C14"/>
</svg>
