<svg width="20" height="20" viewBox="0 0 20 20" fill="none" xmlns="http://www.w3.org/2000/svg">
<path d="M11.7952 2.50338C13.1162 2.5703 14.1667 3.66253 14.1667 5.00012L14.1667 15.0001C14.1667 16.3808 13.0474 17.5001 11.6667 17.5001L5 17.5001C3.61929 17.5001 2.5 16.3808 2.5 15.0001L2.5 5.00012C2.5 3.61941 3.61929 2.50012 5 2.50012L11.6667 2.50012L11.7952 2.50338ZM5 4.16679C4.53976 4.16679 4.16667 4.53988 4.16667 5.00012L4.16667 15.0001C4.16667 15.4604 4.53976 15.8335 5 15.8335L11.6667 15.8335C12.1269 15.8335 12.5 15.4604 12.5 15.0001L12.5 5.00012C12.5 4.56872 12.1722 4.21363 11.7521 4.17086L11.6667 4.16679L5 4.16679ZM16.6667 4.16679C17.1269 4.16679 17.5 4.53988 17.5 5.00012L17.5 15.0001C17.5 15.4604 17.1269 15.8335 16.6667 15.8335C16.2064 15.8335 15.8333 15.4604 15.8333 15.0001L15.8333 5.00012C15.8333 4.53988 16.2064 4.16679 16.6667 4.16679ZM8.13965 7.21855C8.2062 7.03869 8.46046 7.03869 8.52702 7.21855L8.83057 8.03804C9.08165 8.7166 9.61685 9.2518 10.2954 9.50289L11.1149 9.80644C11.2948 9.87299 11.2948 10.1273 11.1149 10.1938L10.2954 10.4974C9.61685 10.7484 9.08165 11.2836 8.83057 11.9622L8.52702 12.7817C8.46046 12.9616 8.2062 12.9616 8.13965 12.7817L7.8361 11.9622C7.58501 11.2836 7.04981 10.7484 6.37126 10.4974L5.55176 10.1938C5.3719 10.1273 5.3719 9.87299 5.55176 9.80644L6.37126 9.50289C7.04981 9.2518 7.58501 8.7166 7.8361 8.03804L8.13965 7.21855Z" fill="#090C14"/>
</svg>
