<svg width="20" height="20" viewBox="0 0 20 20" fill="none" xmlns="http://www.w3.org/2000/svg">
<path d="M16.2941 12.9689C16.7058 12.7631 17.2065 12.93 17.4123 13.3416C17.6179 13.7532 17.4511 14.254 17.0396 14.4598L10.6113 17.6735C10.5671 17.6956 10.4025 17.7864 10.215 17.8216C10.073 17.8482 9.9273 17.8482 9.78533 17.8216C9.59788 17.7864 9.43329 17.6956 9.389 17.6735L2.96078 14.4598C2.54921 14.254 2.38241 13.7532 2.58806 13.3416C2.79389 12.93 3.29458 12.7631 3.70623 12.9689L10.0002 16.115L16.2941 12.9689ZM16.2941 9.63555C16.7058 9.42973 17.2065 9.59662 17.4123 10.0083C17.6179 10.4199 17.4511 10.9206 17.0396 11.1264L10.6113 14.3401C10.5671 14.3623 10.4025 14.4531 10.215 14.4883C10.073 14.5148 9.9273 14.5148 9.78533 14.4883C9.59788 14.4531 9.43328 14.3623 9.389 14.3401L2.96078 11.1264C2.54921 10.9206 2.38241 10.4199 2.58806 10.0083C2.79389 9.59662 3.29458 9.42973 3.70623 9.63555L10.0002 12.7817L16.2941 9.63555ZM9.89193 2.92494C9.99964 2.91491 10.1083 2.92041 10.215 2.9404C10.4023 2.97554 10.5669 3.06547 10.6113 3.0877L17.0396 6.30222C17.3218 6.4434 17.5002 6.73206 17.5002 7.04766C17.5001 7.36319 17.3218 7.65199 17.0396 7.7931L10.6113 11.0068C10.5671 11.0289 10.4025 11.1198 10.215 11.1549C10.073 11.1815 9.9273 11.1815 9.78533 11.1549C9.59788 11.1198 9.43328 11.0289 9.389 11.0068L2.96078 7.7931C2.67855 7.65199 2.50028 7.36319 2.50017 7.04766C2.50017 6.73206 2.67853 6.4434 2.96078 6.30222L9.389 3.0877C9.43343 3.06547 9.59802 2.97554 9.78533 2.9404L9.89193 2.92494ZM5.19711 7.04685L10.0002 9.44838L14.8032 7.04685L10.0002 4.64532L5.19711 7.04685Z" fill="#090C14"/>
</svg>
