<svg width="20" height="20" viewBox="0 0 20 20" fill="none" xmlns="http://www.w3.org/2000/svg">
<path fill-rule="evenodd" clip-rule="evenodd" d="M8.82091 1.96274C9.17309 1.75983 9.57242 1.65302 9.97889 1.65302C10.3854 1.65302 10.7847 1.75984 11.1369 1.96276L11.1387 1.96378L16.3405 4.93621C16.6241 5.09998 16.8691 5.32148 17.06 5.58541C17.1085 5.63465 17.1516 5.69075 17.1878 5.75333C17.2188 5.80699 17.2432 5.86267 17.2612 5.91942C17.4178 6.2371 17.4999 6.58709 17.5003 6.94262V12.8892C17.4998 13.296 17.3925 13.6955 17.1889 14.0476C16.9853 14.3998 16.6927 14.6922 16.3405 14.8956L16.3373 14.8975L11.1387 17.8681L11.1368 17.8691C10.8961 18.0078 10.6334 18.1016 10.3615 18.147C10.247 18.2063 10.1169 18.2398 9.97908 18.2398C9.84132 18.2398 9.71136 18.2063 9.59687 18.1471C9.32473 18.1017 9.06184 18.0079 8.821 17.8691L8.81911 17.8681L3.62052 14.8975L3.6173 14.8956C3.26503 14.6922 2.97244 14.3998 2.76888 14.0476C2.56531 13.6955 2.45794 13.296 2.45752 12.8892V6.94262C2.45789 6.58638 2.54029 6.23572 2.69749 5.91754C2.71543 5.86144 2.73962 5.8064 2.77032 5.75333C2.80621 5.69129 2.84888 5.6356 2.89684 5.58668C3.08792 5.32219 3.3332 5.10024 3.6173 4.93621L3.62051 4.93436L8.82091 1.96274ZM10.8124 16.1349L15.5071 13.4523L15.5085 13.4515C15.6071 13.3943 15.6889 13.3122 15.746 13.2136C15.8032 13.1146 15.8334 13.0024 15.8336 12.888V7.49939L10.8124 10.4039V16.1349ZM9.14575 10.404V16.1351L4.45063 13.4523L4.44928 13.4515C4.35073 13.3943 4.26886 13.3122 4.21182 13.2136C4.15458 13.1145 4.12436 13.0022 4.12419 12.8878V7.4992L9.14575 10.404ZM10.3086 3.40899L14.9708 6.07308L9.97905 8.9606L4.98718 6.07299L9.64923 3.40899L9.65244 3.40714C9.7517 3.34984 9.86428 3.31967 9.97889 3.31967C10.0935 3.31967 10.2061 3.34984 10.3053 3.40714L10.3086 3.40899Z" fill="#090C14"/>
</svg>
