<svg width="20" height="20" viewBox="0 0 20 20" fill="none" xmlns="http://www.w3.org/2000/svg">
<path d="M13.3098 3.14331C14.2891 2.16406 15.8777 2.16423 16.8571 3.14331C17.8362 4.1227 17.8363 5.71057 16.8571 6.6899L6.93934 16.607C6.69437 16.852 6.47962 17.0741 6.21668 17.2353C6.00086 17.3675 5.76538 17.4651 5.51925 17.5242C5.21947 17.5961 4.91017 17.5909 4.56385 17.5909H3.24223C2.78211 17.5908 2.4089 17.2177 2.4089 16.7576V15.4359C2.40889 15.0897 2.40369 14.7803 2.47563 14.4805C2.53473 14.2345 2.63233 13.9988 2.76453 13.7831C2.92566 13.5202 3.14788 13.3053 3.39278 13.0604L13.3098 3.14331ZM16.1426 14.6229C16.4531 14.2833 16.9805 14.2597 17.3202 14.57C17.6599 14.8806 17.6836 15.4079 17.3731 15.7476L16.6317 16.5582C16.0895 17.151 15.3371 17.4998 14.5354 17.4998C13.7342 17.4996 12.9826 17.1512 12.4406 16.559L12.3454 16.4654C12.1177 16.2619 11.8438 16.1595 11.5731 16.1594C11.2637 16.1595 10.9497 16.2931 10.7056 16.559C10.3945 16.8981 9.86714 16.9206 9.52804 16.6095C9.18926 16.2984 9.16614 15.7718 9.47677 15.4327C10.0195 14.8412 10.772 14.4928 11.5731 14.4927C12.3241 14.4928 13.0318 14.7988 13.5645 15.3245L13.6687 15.4327L13.6695 15.4335C13.9129 15.6997 14.2264 15.8329 14.5354 15.8331C14.8445 15.8331 15.1585 15.6998 15.4021 15.4335L16.1426 14.6229ZM4.57117 14.2388C4.27053 14.5395 4.21954 14.5983 4.18543 14.6539C4.14461 14.7205 4.11418 14.7936 4.09591 14.8695C4.0807 14.933 4.07557 15.0108 4.07556 15.4359V15.9242H4.56385C4.98867 15.9242 5.06685 15.919 5.13025 15.9039C5.20631 15.8856 5.27921 15.8552 5.34591 15.8144C5.40158 15.7803 5.45993 15.7296 5.76095 15.4286L13.0949 8.09373L11.8425 6.9666L4.57117 14.2388ZM15.6779 4.32171C15.3494 3.99364 14.8174 3.99348 14.489 4.32171L13.0225 5.78657L14.275 6.9137L15.6779 5.5115C16.0064 5.18296 16.0065 4.65022 15.6779 4.32171Z" fill="#090C14"/>
</svg>
