<svg width="20" height="20" viewBox="0 0 20 20" fill="none" xmlns="http://www.w3.org/2000/svg">
<path d="M13.5502 8.5271C13.5502 6.56651 11.9602 4.97648 9.99959 4.97648C8.03924 4.97666 6.44979 6.5665 6.44979 8.5271L6.45711 8.75741C6.47177 8.98598 6.50811 9.2082 6.56372 9.42228L6.83472 10.4656H5.53507C4.31875 10.4657 3.33293 11.4515 3.33293 12.6677C3.33293 13.8839 4.31874 14.8697 5.53507 14.8699L14.4641 14.8707C15.6805 14.8707 16.6671 13.8842 16.6671 12.6677C16.667 11.5277 15.8007 10.59 14.6903 10.477L14.4649 10.4656H13.1653L13.4363 9.42228C13.5104 9.13694 13.5502 8.83712 13.5502 8.5271ZM15.2169 8.5271C15.2169 8.64241 15.2129 8.75697 15.2055 8.87052C16.9878 9.21619 18.3337 10.7843 18.3337 12.6677C18.3337 14.8046 16.601 16.5374 14.4641 16.5374L5.53507 16.5365C3.39848 16.5364 1.66626 14.8045 1.66626 12.6677C1.66626 10.7845 3.01178 9.21646 4.7937 8.87052C4.78628 8.75698 4.78313 8.64239 4.78312 8.5271C4.78312 5.64629 7.11855 3.31003 9.99959 3.30981C12.8807 3.30981 15.2169 5.64604 15.2169 8.5271Z" fill="#090C14"/>
</svg>
