<svg width="20" height="20" viewBox="0 0 20 20" fill="none" xmlns="http://www.w3.org/2000/svg">
<path d="M17.0833 2.91663C17.3135 2.91663 17.5 3.10317 17.5 3.33329V5.40035C17.4999 5.6304 17.3134 5.81702 17.0833 5.81702H16.0547C15.9163 5.81702 15.7871 5.74779 15.7096 5.6331L15 4.58329H10.8333V15.4166H12.9167C13.1468 15.4166 13.3333 15.6032 13.3333 15.8333V16.6666C13.3333 16.8967 13.1468 17.0833 12.9167 17.0833H7.08333C6.85321 17.0833 6.66667 16.8967 6.66667 16.6666V15.8333C6.66667 15.6032 6.85321 15.4166 7.08333 15.4166H9.16667V4.58329H5L4.27083 5.63717C4.19302 5.74964 4.06499 5.81701 3.92822 5.81702H2.91667C2.6866 5.81702 2.50008 5.6304 2.5 5.40035V3.33329C2.5 3.10317 2.68655 2.91663 2.91667 2.91663H17.0833Z" fill="#090C14"/>
</svg>
